<svg width="87" height="18" viewBox="0 0 87 18" fill="none" xmlns="http://www.w3.org/2000/svg">
<g clip-path="url(#clip0_303_3)">
<path d="M6.304 14.12C5.688 14.12 5.116 14.016 4.588 13.808C4.06 13.6 3.596 13.304 3.196 12.92C2.804 12.536 2.5 12.08 2.284 11.552C2.068 11.024 1.96 10.44 1.96 9.8C1.96 9.192 2.076 8.632 2.308 8.12C2.54 7.6 2.856 7.148 3.256 6.764C3.664 6.372 4.132 6.068 4.66 5.852C5.196 5.636 5.764 5.528 6.364 5.528C6.828 5.528 7.276 5.596 7.708 5.732C8.14 5.86 8.532 6.032 8.884 6.248C9.236 6.464 9.52 6.7 9.736 6.956L8.908 7.94C8.652 7.7 8.388 7.5 8.116 7.34C7.844 7.172 7.556 7.044 7.252 6.956C6.956 6.86 6.644 6.812 6.316 6.812C5.916 6.812 5.532 6.884 5.164 7.028C4.796 7.172 4.472 7.376 4.192 7.64C3.912 7.904 3.688 8.22 3.52 8.588C3.36 8.956 3.28 9.36 3.28 9.8C3.28 10.272 3.36 10.696 3.52 11.072C3.688 11.448 3.916 11.768 4.204 12.032C4.5 12.288 4.84 12.488 5.224 12.632C5.608 12.768 6.024 12.836 6.472 12.836C6.824 12.836 7.152 12.788 7.456 12.692C7.76 12.596 8.036 12.472 8.284 12.32C8.54 12.168 8.772 12 8.98 11.816L9.616 12.884C9.416 13.084 9.144 13.28 8.8 13.472C8.456 13.664 8.068 13.82 7.636 13.94C7.204 14.06 6.76 14.12 6.304 14.12ZM12.1697 14V7.7H13.4177V9.8L13.2017 9.488C13.3057 9.136 13.4817 8.816 13.7297 8.528C13.9777 8.232 14.2617 8 14.5817 7.832C14.9017 7.656 15.2337 7.568 15.5777 7.568C15.7777 7.568 15.9697 7.588 16.1537 7.628C16.3457 7.668 16.4937 7.72 16.5977 7.784L16.2737 9.104C16.1457 9.032 15.9937 8.976 15.8177 8.936C15.6497 8.896 15.4857 8.876 15.3257 8.876C15.0537 8.876 14.8017 8.928 14.5697 9.032C14.3377 9.128 14.1337 9.26 13.9577 9.428C13.7897 9.596 13.6577 9.788 13.5617 10.004C13.4657 10.212 13.4177 10.432 13.4177 10.664V14H12.1697ZM21.5447 14.12C20.8247 14.12 20.1847 13.984 19.6247 13.712C19.0647 13.432 18.6247 13.052 18.3047 12.572C17.9927 12.092 17.8367 11.54 17.8367 10.916C17.8367 10.404 17.9287 9.944 18.1127 9.536C18.2967 9.128 18.5487 8.776 18.8687 8.48C19.1967 8.184 19.5807 7.956 20.0207 7.796C20.4607 7.636 20.9327 7.556 21.4367 7.556C21.8927 7.556 22.3167 7.632 22.7087 7.784C23.1087 7.936 23.4567 8.148 23.7527 8.42C24.0487 8.692 24.2767 9.016 24.4367 9.392C24.6047 9.76 24.6847 10.168 24.6767 10.616L24.6647 11.192H18.8447L18.5687 10.208H23.5967L23.4167 10.364V10.076C23.3847 9.812 23.2727 9.576 23.0807 9.368C22.8887 9.16 22.6487 8.996 22.3607 8.876C22.0727 8.756 21.7647 8.696 21.4367 8.696C20.9567 8.696 20.5367 8.772 20.1767 8.924C19.8247 9.076 19.5487 9.312 19.3487 9.632C19.1567 9.944 19.0607 10.344 19.0607 10.832C19.0607 11.272 19.1727 11.652 19.3967 11.972C19.6207 12.292 19.9327 12.54 20.3327 12.716C20.7327 12.892 21.1927 12.98 21.7127 12.98C22.1607 12.98 22.5487 12.916 22.8767 12.788C23.2047 12.66 23.5167 12.484 23.8127 12.26L24.4007 13.16C24.1927 13.336 23.9327 13.5 23.6207 13.652C23.3087 13.796 22.9727 13.912 22.6127 14C22.2607 14.08 21.9047 14.12 21.5447 14.12ZM29.8203 14.12C29.1723 14.12 28.6003 13.98 28.1043 13.7C27.6083 13.412 27.2203 13.024 26.9403 12.536C26.6603 12.04 26.5203 11.476 26.5203 10.844C26.5203 10.212 26.6603 9.652 26.9403 9.164C27.2283 8.668 27.6203 8.28 28.1163 8C28.6203 7.712 29.1923 7.568 29.8323 7.568C30.2083 7.568 30.5603 7.62 30.8883 7.724C31.2243 7.828 31.5203 7.968 31.7763 8.144C32.0403 8.312 32.2443 8.5 32.3883 8.708C32.5323 8.908 32.6043 9.108 32.6043 9.308L32.2443 9.332V5.12H33.4803V14H32.2443V12.404L32.4843 12.44C32.4843 12.632 32.4083 12.824 32.2563 13.016C32.1123 13.208 31.9163 13.388 31.6683 13.556C31.4203 13.724 31.1363 13.86 30.8163 13.964C30.4963 14.068 30.1643 14.12 29.8203 14.12ZM30.0363 13.028C30.4763 13.028 30.8643 12.932 31.2003 12.74C31.5443 12.548 31.8123 12.288 32.0043 11.96C32.1963 11.632 32.2923 11.26 32.2923 10.844C32.2923 10.428 32.1963 10.056 32.0043 9.728C31.8123 9.4 31.5443 9.144 31.2003 8.96C30.8643 8.768 30.4763 8.672 30.0363 8.672C29.5963 8.672 29.2043 8.768 28.8603 8.96C28.5243 9.144 28.2603 9.4 28.0683 9.728C27.8763 10.056 27.7803 10.428 27.7803 10.844C27.7803 11.26 27.8763 11.632 28.0683 11.96C28.2603 12.288 28.5243 12.548 28.8603 12.74C29.2043 12.932 29.5963 13.028 30.0363 13.028ZM36.2478 14V5.6H40.4838C41.1398 5.6 41.6918 5.684 42.1398 5.852C42.5958 6.02 42.9438 6.256 43.1838 6.56C43.4238 6.864 43.5438 7.224 43.5438 7.64C43.5438 8.128 43.4158 8.54 43.1598 8.876C42.9118 9.204 42.5438 9.424 42.0558 9.536V9.32C42.4158 9.408 42.7398 9.544 43.0278 9.728C43.3238 9.912 43.5558 10.148 43.7238 10.436C43.8998 10.716 43.9878 11.048 43.9878 11.432C43.9878 11.896 43.8918 12.292 43.6998 12.62C43.5158 12.948 43.2638 13.216 42.9438 13.424C42.6318 13.624 42.2798 13.772 41.8878 13.868C41.5038 13.956 41.0998 14 40.6758 14H36.2478ZM38.4678 12.092H40.6518C40.8598 12.092 41.0358 12.064 41.1797 12.008C41.3318 11.952 41.4518 11.864 41.5398 11.744C41.6278 11.624 41.6718 11.476 41.6718 11.3C41.6718 11.108 41.6198 10.96 41.5158 10.856C41.4118 10.752 41.2758 10.676 41.1078 10.628C40.9478 10.572 40.7758 10.544 40.5918 10.544H38.4678V12.092ZM38.4678 8.9H40.2198C40.4278 8.9 40.6078 8.872 40.7598 8.816C40.9118 8.76 41.0278 8.68 41.1078 8.576C41.1878 8.464 41.2278 8.336 41.2278 8.192C41.2278 7.968 41.1358 7.8 40.9518 7.688C40.7678 7.568 40.5118 7.508 40.1838 7.508H38.4678V8.9ZM46.2673 14V5.6H48.6433V11.948H52.9753V14H46.2673ZM59.1537 14.12C58.4417 14.12 57.7897 14.012 57.1977 13.796C56.6137 13.58 56.1017 13.276 55.6617 12.884C55.2297 12.484 54.8937 12.02 54.6537 11.492C54.4217 10.964 54.3057 10.384 54.3057 9.752C54.3057 9.12 54.4217 8.54 54.6537 8.012C54.8937 7.484 55.2297 7.024 55.6617 6.632C56.1017 6.232 56.6137 5.924 57.1977 5.708C57.7897 5.492 58.4417 5.384 59.1537 5.384C59.8577 5.384 60.5017 5.492 61.0857 5.708C61.6777 5.924 62.1897 6.232 62.6217 6.632C63.0617 7.024 63.3977 7.484 63.6297 8.012C63.8697 8.54 63.9897 9.116 63.9897 9.74C63.9897 10.372 63.8697 10.956 63.6297 11.492C63.3977 12.02 63.0617 12.484 62.6217 12.884C62.1897 13.276 61.6777 13.58 61.0857 13.796C60.5017 14.012 59.8577 14.12 59.1537 14.12ZM59.1537 11.912C59.4977 11.912 59.8177 11.86 60.1137 11.756C60.4097 11.652 60.6657 11.504 60.8817 11.312C61.1057 11.112 61.2737 10.88 61.3857 10.616C61.5057 10.352 61.5657 10.064 61.5657 9.752C61.5657 9.44 61.5057 9.152 61.3857 8.888C61.2737 8.624 61.1057 8.396 60.8817 8.204C60.6657 8.004 60.4097 7.852 60.1137 7.748C59.8177 7.644 59.4977 7.592 59.1537 7.592C58.8017 7.592 58.4777 7.644 58.1817 7.748C57.8857 7.852 57.6257 8.004 57.4017 8.204C57.1857 8.404 57.0177 8.636 56.8977 8.9C56.7857 9.156 56.7297 9.44 56.7297 9.752C56.7297 10.064 56.7857 10.352 56.8977 10.616C57.0177 10.872 57.1857 11.1 57.4017 11.3C57.6257 11.5 57.8857 11.652 58.1817 11.756C58.4777 11.86 58.8017 11.912 59.1537 11.912ZM70.5912 14.12C69.9032 14.12 69.2632 14.012 68.6712 13.796C68.0792 13.58 67.5632 13.28 67.1232 12.896C66.6832 12.512 66.3432 12.056 66.1032 11.528C65.8632 10.992 65.7432 10.4 65.7432 9.752C65.7432 9.112 65.8672 8.528 66.1152 8C66.3632 7.464 66.7032 7.004 67.1352 6.62C67.5752 6.228 68.0912 5.924 68.6832 5.708C69.2832 5.492 69.9272 5.384 70.6152 5.384C71.0712 5.384 71.5112 5.44 71.9352 5.552C72.3592 5.656 72.7552 5.804 73.1232 5.996C73.4992 6.18 73.8272 6.404 74.1072 6.668L72.7152 8.408C72.5552 8.248 72.3712 8.104 72.1632 7.976C71.9632 7.848 71.7272 7.744 71.4552 7.664C71.1912 7.584 70.8912 7.544 70.5552 7.544C70.2512 7.544 69.9552 7.592 69.6672 7.688C69.3792 7.784 69.1232 7.928 68.8992 8.12C68.6832 8.312 68.5112 8.548 68.3832 8.828C68.2552 9.1 68.1912 9.416 68.1912 9.776C68.1912 10.128 68.2552 10.44 68.3832 10.712C68.5192 10.984 68.7072 11.212 68.9472 11.396C69.1872 11.58 69.4632 11.724 69.7752 11.828C70.0872 11.932 70.4272 11.984 70.7952 11.984C71.1312 11.984 71.4312 11.936 71.6952 11.84C71.9672 11.744 72.2072 11.628 72.4152 11.492C72.6312 11.356 72.8232 11.216 72.9912 11.072L74.1072 12.872C73.8912 13.08 73.5992 13.28 73.2312 13.472C72.8632 13.664 72.4512 13.82 71.9952 13.94C71.5392 14.06 71.0712 14.12 70.5912 14.12ZM77.7464 11.768L77.0384 9.908L81.8144 5.6H84.6464L77.7464 11.768ZM76.1384 14V5.6H78.5144V14H76.1384ZM82.0784 14L78.8144 9.872L80.3144 8.444L84.8504 14H82.0784Z" fill="black"/>
</g>
<defs>
<clipPath id="clip0_303_3">
<rect width="87" height="18" fill="white"/>
</clipPath>
</defs>
</svg>
